# AST/ASF file generated using VICON BodyLanguage
# -----------------------------------------------
:version 1.10
:name VICON
:units
  mass 1.0
  length 0.45
  angle deg
:documentation
   .ast/.asf automatically generated from VICON data using
   VICON BodyBuilder and BodyLanguage model FoxedUp or BRILLIANT.MOD
:root
   order TX TY TZ RX RY RZ
   axis XYZ
   position 0 0 0  
   orientation 0 0 0 
:bonedata
  begin
     id 1 
     name lhipjoint
     direction 0.528046 -0.759594 0.379717 
     length 2.39752 
     axis 0 0 0  XYZ
  end
  begin
     id 2 
     name lfemur
     direction 0.34202 -0.939693 0  
     length 7.31175  
     axis 0 0 20  XYZ
    dof rx ry rz
    limits (-160.0 20.0)
           (-70.0 70.0)
           (-60.0 70.0)
  end
  begin
     id 3 
     name ltibia
     direction 0.34202 -0.939693 0   
     length 7.52482   
     axis 0 0 20   XYZ
    dof rx
    limits (-10.0 170.0)
  end
  begin
     id 4 
     name lfoot
     direction 0.0675379 -0.185559 0.980309   
     length 2.00961   
     axis -90 7.62852e-016 20   XYZ
    dof rx rz
    limits (-45.0 90.0)
           (-70.0 20.0)
  end
  begin
     id 5 
     name ltoes
     direction 1.5352e-011 -4.22286e-011 1   
     length 1.01383   
     axis -90 7.62852e-016 20   XYZ
    dof rx
    limits (-90.0 20.0)
  end
  begin
     id 6 
     name rhipjoint
     direction -0.510274 -0.769251 0.384544   
     length 2.36742  
     axis 0 0 0  XYZ 
  end
  begin
     id 7 
     name rfemur
     direction -0.34202 -0.939693 0   
     length 7.45325   
     axis 0 0 -20   XYZ
    dof rx ry rz
    limits (-160.0 20.0)
           (-70.0 70.0)
           (-70.0 60.0)
  end
  begin
     id 8 
     name rtibia
     direction -0.34202 -0.939693 0   
     length 7.49587   
     axis 0 0 -20   XYZ
    dof rx
    limits (-10.0 170.0)
 end
 begin
     id 9 
     name rfoot
     direction -0.106475 -0.292536 0.950308   
     length 2.20898  
     axis -90 -7.62852e-016 -20   XYZ
    dof rx rz
    limits (-45.0 90.0)
           (-20.0 70.0)
  end
  begin
     id 10 
     name rtoes
     direction -1.53597e-011 -4.22023e-011 1   
     length 1.10065   
     axis -90 -7.62852e-016 -20   XYZ
    dof rx
    limits (-90.0 20.0)
  end
  begin
     id 11 
     name lowerback
     direction 0.0260024 0.998026 -0.0571652   
     length 2.11214   
     axis 0 0 0   XYZ
    dof rx ry rz
    limits (-20.0 45.0)
           (-30.0 30.0)
           (-30.0 30.0)
  end
  begin
     id 12 
     name upperback
     direction 0.0216202 0.999542 -0.0211766   
     length 2.11689   
     axis 0 0 0   XYZ
    dof rx ry rz
    limits (-20.0 45.0)
           (-30.0 30.0)
           (-30.0 30.0)
  end
  begin
     id 13 
     name thorax
     direction 0.00883312 0.999944 0.00589057   
     length 2.11821   
     axis 0 0 0   XYZ
    dof rx ry rz
    limits (-20.0 45.0)
           (-30.0 30.0)
           (-30.0 30.0)
  end
  begin
     id 14 
     name lowerneck
     direction -0.059386 0.994433 0.0870401   
     length 1.81176   
     axis 0 0 0   XYZ
    dof rx ry rz
    limits (-20.0 45.0)
           (-30.0 30.0)
           (-30.0 30.0)
  end
  begin
     id 15 
     name upperneck
     direction 0.0506457 0.97328 -0.223967   
     length 1.82382   
     axis 0 0 0   XYZ
    dof rx ry rz
    limits (-20.0 45.0)
           (-30.0 30.0)
           (-30.0 30.0)
  end
  begin
     id 16
     name head
     direction 0.0205902 0.996147 -0.0852487  
     length 1.84805  
     axis 0 0 0   XYZ
    dof rx ry rz
    limits (-20.0 45.0)
           (-30.0 30.0)
           (-30.0 30.0)
  end
  begin
     id 17 
     name lclavicle
     direction 0.949493 0.303881 -0.0782325  
     length 3.60584  
     axis 0 0 0   XYZ
    dof ry rz
    limits (-20.0 10.0)
           (0.0 20.0)
  end
  begin
     id 18 
     name lhumerus
     direction 1 -4.48965e-011 1.48782e-027   
     length 4.95681   
     axis 180 -30 -90   XYZ
    dof rx ry rz
    limits (-60.0 90.0)
           (-90.0 90.0)
           (-90.0 90.0)
  end
  begin
     id 19
     name lradius
     direction 1 -4.48952e-011 2.06528e-027   
     length 3.40915   
     axis 180 -30 -90   XYZ
    dof rx
    limits (-10.0 170.0)
  end
  begin
     id 20
     name lwrist
     direction 1 -4.48964e-011 1.28021e-027   
     length 1.70457   
     axis -1.61767e-015 90 90   XYZ
    dof ry
    limits (-180.0 0.0)
 end
  begin
     id 21 
     name lhand
     direction 1 -4.49094e-011 2.54887e-027   
     length 0.616403   
     axis -1.63363e-015 90 90   XYZ
    dof rx rz
    limits (-90.0 90.0)
           (-45.0 45.0)
  end
  begin
     id 22 
     name lfingers
     direction 1 -4.49002e-011 5.11407e-027   
     length 0.49696   
     axis -3.26723e-015 90 90   XYZ
    dof rx
    limits (0.0 90.0)
  end
  begin
     id 23
     name lthumb
     direction 0.707107 -6.34998e-011 0.707107   
     length 0.713539   
     axis -90 45 -2.25915e-014   XYZ
    dof rx rz
    limits (-45.0 45.0)
           (-45.0 45.0)
  end
  begin
     id 24 
     name rclavicle
     direction -0.937751 0.334612 -0.0930482   
     length 3.46287  
     axis 0 0 0   XYZ 
    dof ry rz
    limits (-10.0 20.0)
           (-20.0 0.0)
  end
  begin
     id 25 
     name rhumerus
     direction -1 -4.48962e-011 3.59972e-027  
     length 5.352   
     axis 180 30 90   XYZ
    dof rx ry rz
    limits (-90.0 60.0)
           (-90.0 90.0)
           (-90.0 90.0)
  end
  begin
     id 26 
     name rradius
     direction -1 -4.48987e-011 -3.76925e-027   
     length 3.43721   
     axis 180 30 90   XYZ
    dof rx
    limits (-10.0 170.0)
  end
  begin
     id 27 
     name rwrist
     direction -1 -4.48943e-011 1.28112e-027   
     length 1.7186   
     axis -1.61767e-015 -90 -90   XYZ
    dof ry
    limits (-180.0 0.0)
  end
  begin
     id 28
     name rhand
     direction -1 -4.49027e-011 2.55483e-027   
     length 0.72009   
     axis -1.63363e-015 -90 -90   XYZ
    dof rx rz
    limits (-90.0 90.0)
           (-45.0 45.0)
  end
  begin
     id 29
     name rfingers
     direction -1 -4.48827e-011 5.14506e-027   
     length 0.580555   
     axis -3.26723e-015 -90 -90   XYZ
    dof rx
    limits (0.0 90.0)
  end
  begin
     id 30
     name rthumb
     direction -0.707107 -6.34936e-011 0.707107   
     length 0.833564   
     axis -90 -45 2.25915e-014   XYZ
    dof rx rz
    limits (-45.0 45.0)
           (-45.0 45.0)
  end
:hierarchy
  begin
    root lhipjoint rhipjoint lowerback
    lhipjoint lfemur
    lfemur ltibia
    ltibia lfoot
    lfoot ltoes
    rhipjoint rfemur
    rfemur rtibia
    rtibia rfoot
    rfoot rtoes
    lowerback upperback
    upperback thorax
    thorax lowerneck lclavicle rclavicle
    lowerneck upperneck
    upperneck head
    lclavicle lhumerus
    lhumerus lradius
    lradius lwrist
    lwrist lhand lthumb
    lhand lfingers
    rclavicle rhumerus
    rhumerus rradius
    rradius rwrist
    rwrist rhand rthumb
    rhand rfingers
  end

#!OML:ASF H:\Terrain\Patient Classification 1\Terrain2\Thursday\justin.ASF
:FULLY-SPECIFIED
:DEGREES
519
root 11.529 18.8456 20.954 655.626 83.8645 658.11
lowerback 17.5445 3.51869 6.00395
upperback 4.0718 6.03317 1.54869
thorax -4.97125 3.00275 -3.0121
lowerneck -16.0818 -4.07183 -10.6219
upperneck 33.8887 -3.716 6.43763
head 14.7938 -1.69988 3.99645
rclavicle 1.70955e-014 -5.96354e-016
rhumerus -22.8008 -2.63248 -82.8441
rradius 33.6945
rwrist -16.4799
rhand -21.6727 11.1641
rfingers 7.12502
rthumb 4.72478 -18.7632
lclavicle 1.70955e-014 -5.96354e-016
lhumerus -37.0071 13.4824 80.1574
lradius 28.8021
lwrist 1.86922
lhand -20.1399 21.1506
lfingers 7.12502
lthumb 6.20478 51.0397
rfemur 11.9003 2.65154 27.5991
rtibia 17.624
rfoot 9.40919 4.70073
rtoes -9.00821
lfemur -69.9977 8.22767 -17.6402
ltibia 97.6052
lfoot -18.1292 -13.8789
ltoes 7.83597
520
root 11.6539 19.0005 20.9448 656.701 83.9886 658.621
lowerback 17.234 3.61096 5.5313
upperback 3.9705 6.04039 1.51081
thorax -4.9581 3.00541 -2.77175
lowerneck -16.3386 -4.16739 -10.8428
upperneck 33.8469 -3.8763 6.72464
head 14.8659 -1.76037 4.12714
rclavicle -2.84759e-014 -4.77083e-015
rhumerus -23.0179 -2.97792 -82.9082
rradius 33.1736
rwrist -16.1956
rhand -21.2575 10.4423
rfingers 7.12502
rthumb 5.12574 -19.4757
lclavicle -2.84759e-014 -4.77083e-015
lhumerus -36.9457 13.6913 80.2262
lradius 29.0517
lwrist 2.03112
lhand -18.1761 22.0454
lfingers 7.12502
lthumb 8.10042 51.8701
rfemur 12.2165 2.85652 27.3161
rtibia 15.5582
rfoot 13.3647 4.33498
rtoes -8.87216
lfemur -68.975 8.23592 -17.9081
ltibia 96.4102
lfoot -18.9915 -13.6461
ltoes 8.55015
521
root 11.7682 19.1542 20.9327 656.862 83.7961 658.214
lowerback 17.157 3.69715 5.48933
upperback 3.7366 6.13756 1.48684
thorax -5.16072 3.03585 -2.79824
lowerneck -16.2237 -4.20638 -10.8078
upperneck 33.5348 -4.01237 6.8295
head 14.7109 -1.80282 4.12556
rclavicle -1.94312e-014 -1.8487e-014
rhumerus -23.4091 -3.30818 -83.0221
rradius 32.5375
rwrist -15.8817
rhand -21.4456 9.90793
rfingers 7.12502
rthumb 4.94408 -20.0144
lclavicle -1.94312e-014 -1.8487e-014
lhumerus -36.9511 13.2058 80.4575
lradius 29.4221
lwrist 2.69109
lhand -16.4157 23.2713
lfingers 7.12502
lthumb 9.79909 53.0233
rfemur 12.4304 3.01945 27.3605
rtibia 13.3808
rfoot 17.9224 3.73054
rtoes -8.73303
lfemur -68.077 8.61164 -17.9373
ltibia 95.2391
lfoot -19.976 -13.229
ltoes 7.21704
522
root 11.895 19.3011 20.9118 656.23 83.716 656.806
lowerback 16.6974 3.70997 5.59588
upperback 3.44243 6.12736 1.34444
thorax -5.20089 3.01452 -2.98034
lowerneck -15.8414 -4.16672 -10.5702
upperneck 32.9592 -4.13154 6.94305
head 14.3662 -1.81394 4.08245
rclavicle -2.44008e-014 4.81059e-014
rhumerus -24.0082 -3.38355 -83.2931
rradius 32.1822
rwrist -16.2098
rhand -22.1603 9.8216
rfingers 7.12502
rthumb 4.25393 -20.1157
lclavicle -2.44008e-014 4.81059e-014
lhumerus -37.0374 12.764 80.5056
lradius 29.7867
lwrist 3.58217
lhand -20.3011 21.7929
lfingers 7.12502
lthumb 6.04914 51.6866
rfemur 12.5721 2.7673 27.1759
rtibia 10.8693
rfoot 22.814 2.64328
rtoes -6.63095
lfemur -67.4046 8.77152 -18.0622
ltibia 94.1447
lfoot -20.7658 -13.0831
ltoes 8.13315
523
root 12.0309 19.4454 20.8897 655.771 83.6572 655.55
lowerback 15.9807 3.75299 5.66195
upperback 3.23721 6.13229 1.22855
thorax -5.01183 3.01333 -3.08747
lowerneck -15.699 -4.23404 -10.483
upperneck 32.513 -4.3569 7.1244
head 14.1598 -1.88163 4.08272
rclavicle 6.66674e-014 2.0276e-014
rhumerus -24.5232 -3.52556 -83.513
rradius 31.953
rwrist -16.637
rhand -22.8112 9.45152
rfingers 7.12502
rthumb 3.62544 -20.4974
lclavicle 6.66674e-014 2.0276e-014
lhumerus -37.0964 12.4958 80.5037
lradius 30.1398
lwrist 4.25329
lhand -18.9278 21.1648
lfingers 7.12502
lthumb 7.37486 51.0163
rfemur 13.1816 2.66523 26.9859
rtibia 7.48466
rfoot 27.9917 0.614692
rtoes -2.50288
lfemur -66.7444 8.80361 -18.1282
ltibia 93.0766
lfoot -21.3236 -13.1926
ltoes 10.4275
524
root 12.15 19.5953 20.8725 655.32 83.3398 654.419
lowerback 15.6035 3.82478 5.9165
upperback 3.01687 6.23692 1.17074
thorax -4.99888 3.05247 -3.28492
lowerneck -15.8638 -4.36154 -10.549
upperneck 32.3703 -4.63008 7.43878
head 14.1757 -1.96771 4.17158
rclavicle -2.07481e-014 2.98177e-014
rhumerus -24.9072 -4.43819 -83.4937
rradius 31.4623
rwrist -15.3735
rhand -21.6114 8.85189
rfingers 7.12502
rthumb 4.78397 -21.0741
lclavicle -2.07481e-014 2.98177e-014
lhumerus -37.2128 12.0601 80.493
lradius 30.6523
lwrist 4.2912
lhand -16.8538 21.2677
lfingers 7.12502
lthumb 9.37646 51.0392
rfemur 13.7662 2.66181 27.0903
rtibia 4.34042
rfoot 32.7929 -1.48186
rtoes 2.41865
lfemur -66.0539 8.93435 -17.8097
ltibia 92.0013
lfoot -21.5594 -13.4742
ltoes 12.4288
